<svg width="21" height="21" viewBox="0 0 21 21" fill="none" xmlns="http://www.w3.org/2000/svg">
<path d="M9.05707 7.05707H11.0571V5.05707H9.05707V7.05707ZM10.0571 18.0571C5.64707 18.0571 2.05707 14.4671 2.05707 10.0571C2.05707 5.64707 5.64707 2.05707 10.0571 2.05707C14.4671 2.05707 18.0571 5.64707 18.0571 10.0571C18.0571 14.4671 14.4671 18.0571 10.0571 18.0571ZM10.0571 0.0570679C8.74385 0.0570679 7.44349 0.315726 6.23023 0.818273C5.01698 1.32082 3.91459 2.05741 2.986 2.986C1.11064 4.86136 0.0570679 7.4049 0.0570679 10.0571C0.0570679 12.7092 1.11064 15.2528 2.986 17.1281C3.91459 18.0567 5.01698 18.7933 6.23023 19.2959C7.44349 19.7984 8.74385 20.0571 10.0571 20.0571C12.7092 20.0571 15.2528 19.0035 17.1281 17.1281C19.0035 15.2528 20.0571 12.7092 20.0571 10.0571C20.0571 8.74385 19.7984 7.44349 19.2959 6.23023C18.7933 5.01698 18.0567 3.91459 17.1281 2.986C16.1996 2.05741 15.0972 1.32082 13.8839 0.818273C12.6706 0.315726 11.3703 0.0570679 10.0571 0.0570679ZM9.05707 15.0571H11.0571V9.05707H9.05707V15.0571Z" fill="currentColor"/>
</svg>
