<svg width="22" height="16" viewBox="0 0 22 16" fill="none" xmlns="http://www.w3.org/2000/svg">
<path d="M18 4L14 8H17C17 9.5913 16.3679 11.1174 15.2426 12.2426C14.1174 13.3679 12.5913 14 11 14C10 14 9.03 13.75 8.2 13.3L6.74 14.76C7.97 15.54 9.43 16 11 16C13.1217 16 15.1566 15.1571 16.6569 13.6569C18.1571 12.1566 19 10.1217 19 8H22M5 8C5 6.4087 5.63214 4.88258 6.75736 3.75736C7.88258 2.63214 9.4087 2 11 2C12 2 12.97 2.25 13.8 2.7L15.26 1.24C14.03 0.46 12.57 0 11 0C8.87827 0 6.84344 0.842855 5.34315 2.34315C3.84285 3.84344 3 5.87827 3 8H0L4 12L8 8" fill="currentColor"/>
</svg>
