<svg width="30" height="15" viewBox="0 0 30 15" fill="none" xmlns="http://www.w3.org/2000/svg">
<path d="M3 15V3H0V0H6V15H3ZM30 12C30 13.665 28.65 15 27 15H21V12H27V9H24V6H27V3H21V0H27C27.7956 0 28.5587 0.31607 29.1213 0.87868C29.6839 1.44129 30 2.20435 30 3V5.25C30 5.84674 29.7629 6.41903 29.341 6.84099C28.919 7.26295 28.3467 7.5 27.75 7.5C28.3467 7.5 28.919 7.73705 29.341 8.15901C29.7629 8.58097 30 9.15326 30 9.75V12ZM18 12V15H9V9C9 7.335 10.35 6 12 6H15V3H9V0H15C15.7956 0 16.5587 0.31607 17.1213 0.87868C17.6839 1.44129 18 2.20435 18 3V6C18 7.665 16.65 9 15 9H12V12H18Z" fill="currentColor"/>
</svg>
