<svg width="30" height="15" viewBox="0 0 30 15" fill="none" xmlns="http://www.w3.org/2000/svg">
<path d="M8.99998 12C8.99998 13.665 7.64998 15 5.99999 15H0V12H5.99999V8.99998H2.99999V5.99999H5.99999V2.99999H0V0H5.99999C6.79563 0 7.55869 0.31607 8.1213 0.878677C8.68391 1.44129 8.99998 2.20435 8.99998 2.99999V5.24999C8.99998 5.84672 8.76292 6.41902 8.34097 6.84097C7.91901 7.26293 7.34672 7.49998 6.74999 7.49998C7.34672 7.49998 7.91901 7.73703 8.34097 8.15899C8.76292 8.58095 8.99998 9.15324 8.99998 9.74998V12Z" fill="#333333"/>
<path d="M20.7857 15V12H14.7857V8.99998H17.7857C19.4357 8.99998 20.7857 7.66498 20.7857 5.99999V2.99999C20.7857 2.20435 20.4696 1.44129 19.907 0.878677C19.3444 0.31607 18.5813 0 17.7857 0H11.7857V2.99999H17.7857V5.99999H14.7857C13.1357 5.99999 11.7857 7.33498 11.7857 8.99998V15H20.7857Z" fill="#333333"/>
<path d="M27 2.99999V15H30V0H24V2.99999H27Z" fill="currentColor"/>
</svg>
