<svg width="24" height="22" viewBox="0 0 24 22" fill="none" xmlns="http://www.w3.org/2000/svg">
<path d="M23.2317 5.33333L18.2778 9.57956V7.11111V6.61111H17.7778H16H15.7929L15.6464 6.75756L5.12623 17.2778H0.5V14.7222H3.8637H4.07081L4.21726 14.5758L14.7375 4.05556H17.7778H18.2778V3.55556V1.08711L23.2317 5.33333ZM18.2778 11.7538L23.2317 16L18.2778 20.2462V17.7778V17.2778H17.7778H14.7375L11.8953 14.4356L13.7007 12.6301L15.6464 14.5758L15.7929 14.7222H16H17.7778H18.2778V14.2222V11.7538ZM5.12623 4.05556L7.96845 6.89778L6.16296 8.70326L4.21726 6.75756L4.07081 6.61111H3.8637H0.5V4.05556H5.12623Z" fill="currentColor" stroke="currentColor"/>
</svg>
