<svg width="17" height="16" viewBox="0 0 17 16" fill="none" xmlns="http://www.w3.org/2000/svg">
<path d="M13.7071 2.35C12.2571 0.9 10.2671 0 8.05707 0C5.93534 0 3.9005 0.842855 2.40021 2.34315C0.899923 3.84344 0.0570679 5.87827 0.0570679 8C0.0570679 10.1217 0.899923 12.1566 2.40021 13.6569C3.9005 15.1571 5.93534 16 8.05707 16C11.7871 16 14.8971 13.45 15.7871 10H13.7071C12.8871 12.33 10.6671 14 8.05707 14C6.46577 14 4.93965 13.3679 3.81443 12.2426C2.68921 11.1174 2.05707 9.5913 2.05707 8C2.05707 6.4087 2.68921 4.88258 3.81443 3.75736C4.93965 2.63214 6.46577 2 8.05707 2C9.71707 2 11.1971 2.69 12.2771 3.78L9.05707 7H16.0571V0L13.7071 2.35Z" fill="currentColor"/>
</svg>
