<svg width="21" height="18" viewBox="0 0 21 18" fill="none" xmlns="http://www.w3.org/2000/svg">
<path d="M6.05707 10C4.19707 10 2.64707 11.28 2.19707 13H0.0570679V15H2.19707C2.64707 16.72 4.19707 18 6.05707 18C7.91707 18 9.46707 16.72 9.91707 15H20.0571V13H9.91707C9.46707 11.28 7.91707 10 6.05707 10ZM6.05707 16C4.95707 16 4.05707 15.1 4.05707 14C4.05707 12.9 4.95707 12 6.05707 12C7.15707 12 8.05707 12.9 8.05707 14C8.05707 15.1 7.15707 16 6.05707 16ZM17.9171 3C17.4671 1.28 15.9171 0 14.0571 0C12.1971 0 10.6471 1.28 10.1971 3H0.0570679V5H10.1971C10.6471 6.72 12.1971 8 14.0571 8C15.9171 8 17.4671 6.72 17.9171 5H20.0571V3H17.9171ZM14.0571 6C12.9571 6 12.0571 5.1 12.0571 4C12.0571 2.9 12.9571 2 14.0571 2C15.1571 2 16.0571 2.9 16.0571 4C16.0571 5.1 15.1571 6 14.0571 6Z" fill="currentColor"/>
</svg>
